<svg width="104" height="28" viewBox="0 0 104 28" fill="none" xmlns="http://www.w3.org/2000/svg">
<g clip-path="url(#clip0_2_1087)">
<path d="M24.3871 19.1845L24.3727 19.1384L33.5161 10.7286V6.67652H18.847V10.7286H27.6089L27.6234 10.7674L18.5692 19.1845V23.2366H33.6634V19.1845H24.3871Z" fill="#201515"/>
<path d="M42.6691 6.29075C40.9771 6.29075 39.5981 6.5471 38.5322 7.05991C37.5393 7.50676 36.703 8.24309 36.1316 9.17327C35.5851 10.1096 35.2418 11.1515 35.1245 12.2305L39.5755 12.859C39.7365 11.9062 40.0585 11.2309 40.5416 10.8329C41.0906 10.4167 41.7672 10.2065 42.4543 10.2385C43.3577 10.2385 44.013 10.4811 44.42 10.9664C44.8237 11.4516 45.0288 12.1237 45.0288 13.0094V13.451H40.7493C38.5708 13.451 37.0059 13.9363 36.0544 14.9068C35.1028 15.8774 34.6278 17.1585 34.6294 18.7502C34.6294 20.3807 35.1044 21.594 36.0544 22.3898C37.0043 23.1856 38.1989 23.5811 39.6383 23.5763C41.4239 23.5763 42.7974 22.9592 43.7584 21.7249C44.3263 20.9665 44.7316 20.0983 44.9491 19.1748H45.1108L45.7242 23.2269H49.7573V12.9657C49.7573 10.845 49.2012 9.20241 48.0887 8.03773C46.9761 6.87305 45.1695 6.29075 42.6691 6.29075ZM44.0797 18.9394C43.4396 19.4757 42.6015 19.7426 41.5583 19.7426C40.6985 19.7426 40.1012 19.5914 39.7663 19.2889C39.6031 19.1457 39.4733 18.9683 39.3861 18.7691C39.2989 18.5699 39.2564 18.3539 39.2616 18.1363C39.2521 17.9312 39.2842 17.7262 39.356 17.5339C39.4278 17.3416 39.5379 17.166 39.6794 17.0178C39.8324 16.8736 40.013 16.762 40.2102 16.6899C40.4073 16.6177 40.617 16.5865 40.8265 16.598H45.036V16.877C45.0445 17.2714 44.9626 17.6626 44.7971 18.0202C44.6311 18.3778 44.3858 18.6923 44.0797 18.9394Z" fill="#201515"/>
<path d="M74.1449 6.67652H69.3801V23.239H74.1449V6.67652Z" fill="#201515"/>
<path d="M102.278 6.67652C100.932 6.67652 99.8708 7.1537 99.0948 8.10811C98.5379 8.79395 98.1144 9.80736 97.8247 11.1483H97.6846L97.0614 6.67652H92.992V23.2366H97.7572V14.7442C97.7572 13.6734 98.0067 12.8525 98.5058 12.2815C99.0048 11.7104 99.9257 11.425 101.268 11.425H103.077V6.67652H102.278Z" fill="#201515"/>
<path d="M88.2631 7.21763C87.151 6.55278 85.7475 6.22118 84.054 6.2228C81.3877 6.2228 79.301 6.98551 77.7941 8.51088C76.2868 10.0363 75.5336 12.1391 75.5336 14.8195C75.4951 16.44 75.8473 18.0457 76.56 19.5C77.2123 20.7959 78.2282 21.8714 79.4822 22.5936C80.7442 23.3264 82.2456 23.6936 83.9864 23.6952C85.4917 23.6952 86.749 23.4623 87.7586 22.9964C88.7077 22.578 89.534 21.9222 90.1593 21.0917C90.7542 20.2764 91.1963 19.3587 91.4631 18.3838L87.3579 17.2289C87.1848 17.8628 86.8521 18.4411 86.3918 18.9079C85.9278 19.3738 85.1509 19.6068 84.0612 19.6068C82.7649 19.6068 81.7989 19.2339 81.163 18.4882C80.7015 17.9495 80.4119 17.1803 80.284 16.1831H91.526C91.5721 15.7172 91.5961 15.3266 91.5961 15.0111V13.98C91.6232 12.5946 91.3386 11.221 90.7631 9.96186C90.2243 8.81482 89.3529 7.85821 88.2631 7.21763ZM83.9163 10.1705C85.8484 10.1705 86.9437 11.1257 87.2029 13.0361H80.3684C80.4769 12.3987 80.74 11.7979 81.1339 11.2867C81.7605 10.541 82.6877 10.1689 83.9163 10.1705Z" fill="#201515"/>
<path d="M71.8142 0.00155365C71.4557 -0.0106946 71.0985 0.0495779 70.7637 0.178793C70.4289 0.308009 70.1236 0.503525 69.8652 0.753726C69.6111 1.00633 69.4113 1.30933 69.2796 1.64348C69.1479 1.97763 69.0867 2.33565 69.0997 2.69483C69.0871 3.05634 69.1483 3.41664 69.2805 3.75324C69.4122 4.08983 69.6119 4.39551 69.8665 4.65118C70.1211 4.90684 70.4255 5.10702 70.7608 5.23924C71.096 5.37147 71.4545 5.43289 71.8142 5.41966C72.1718 5.43323 72.5282 5.37185 72.8609 5.23946C73.1936 5.10702 73.4951 4.90646 73.7463 4.6505C73.9958 4.39191 74.19 4.08537 74.3184 3.74928C74.4468 3.4132 74.5059 3.05452 74.4928 2.69483C74.5092 2.33727 74.4514 1.98019 74.3226 1.64638C74.1938 1.31257 73.9975 1.00939 73.7459 0.756169C73.4938 0.502952 73.1923 0.305273 72.86 0.175757C72.5282 0.0462424 72.1727 -0.0122571 71.8167 0.0039824L71.8142 0.00155365Z" fill="#201515"/>
<path d="M61.9705 6.22279C60.3475 6.22279 59.0432 6.73476 58.0582 7.75869C57.3286 8.51733 56.7932 9.64964 56.4521 11.1556H56.3001L55.6769 6.68381H51.6075V27.9972H56.3723V19.2185H56.5462C56.6915 19.8038 56.8954 20.3729 57.1546 20.917C57.5579 21.8033 58.2191 22.546 59.0508 23.0473C59.913 23.5202 60.8846 23.7554 61.8666 23.7292C63.8616 23.7292 65.3804 22.9487 66.4237 21.3877C67.467 19.8267 67.9889 17.6486 67.9889 14.8535C67.9889 12.1537 67.4839 10.0403 66.4748 8.5133C65.4652 6.98631 63.9638 6.22279 61.9705 6.22279ZM62.4535 18.2237C61.8979 19.0325 61.0285 19.4369 59.845 19.4369C59.3574 19.4595 58.871 19.365 58.4268 19.1612C57.9822 18.9574 57.5925 18.6502 57.2902 18.2649C56.6733 17.4869 56.3659 16.4217 56.3676 15.0694V14.7539C56.3676 13.3806 56.675 12.3292 57.2902 11.5996C57.9049 10.8701 58.757 10.5094 59.845 10.5175C61.0496 10.5175 61.9245 10.9017 62.4704 11.67C63.0164 12.4384 63.2891 13.51 63.2891 14.885C63.2925 16.3068 63.0155 17.4197 62.4582 18.2237H62.4535Z" fill="#201515"/>
<path d="M16.7265 19.1845H0.241272V23.2415H16.7265V19.1845Z" fill="#FF4F00"/>
</g>
<defs>
<clipPath id="clip0_2_1087">
<rect width="103.505" height="27.9972" fill="white"/>
</clipPath>
</defs>
</svg>
